# xmcd
#
# Track frame offsets:
# 150
# 14246
# 27848
# 47400
# 59357
# 73237
# 86161
# 97912
# 117026
# 132304
# 152498
# 172711
# 188255
# 200539
# 215215
#
# Disc length: 3042 seconds
#
# Revision: 3
# Processed by: cddbd v1.5.1PL2 Copyright (c) Steve Scherf et al.
# Submitted via: Axialis_AX_CDPlayer 2.6
#
DISCID=c80be00f
DTITLE=Various Artist - Lonesome, On'ry and Mean: A Tribute To Waylon Jenni
DTITLE=ngs \n(complete track list)
DYEAR=2003
DGENRE=Country
TTITLE0=Guy Clark - Good Hearted Woman
TTITLE1=Nanci Griffith - You Asked Me To
TTITLE2=Dave Alvin - Amanda
TTITLE3=Norah Jones - Wurlitzer Prize (I Don't Want To Get Over You)
TTITLE4=Cowboy Jack Clement w/ Pam Tillis - Let's All Help The Cowboys (Sing
TTITLE4=The \nBlues)
TTITLE5=John Doe - Only Daddy That'll Walk The Line
TTITLE6=Junior Brown - Nashville Rebel
TTITLE7=Robert Earl Keen - Are You Sure Hank Done It This Way
TTITLE8=Carlene Carter - I've Always Been Crazy
TTITLE9=Radney Foster w/ Roger Creager - Lukenbach, Texas (Back To The Basic
TTITLE9=s \n
TTITLE10=Allison Moorer - Storms Never Last
TTITLE11=Kris Kristofferson - I Do Belive
TTITLE12=Alejandro Escovedo - Lock, Stock And Teardrops
TTITLE13=The Crickets - Waymore's Blues
TTITLE14=Henry Rollins - Lonesome, On'ry And Mean
EXTD=
EXTT0=
EXTT1=
EXTT2=
EXTT3=
EXTT4=
EXTT5=
EXTT6=
EXTT7=
EXTT8=
EXTT9=
EXTT10=
EXTT11=
EXTT12=
EXTT13=
EXTT14=
PLAYORDER=
